<svg width="136" height="40" viewBox="0 0 136 40" fill="none" xmlns="http://www.w3.org/2000/svg">
<rect width="136" height="40" rx="5.42647" fill="#FAFAFA"/>
<path d="M47.958 23.138H44.066L43.422 25H41.364L44.878 15.214H47.16L50.674 25H48.602L47.958 23.138ZM47.426 21.57L46.012 17.482L44.598 21.57H47.426ZM54.0875 18.364C54.3395 18.0093 54.6848 17.7153 55.1235 17.482C55.5715 17.2393 56.0802 17.118 56.6495 17.118C57.3122 17.118 57.9095 17.2813 58.4415 17.608C58.9828 17.9347 59.4075 18.4013 59.7155 19.008C60.0328 19.6053 60.1915 20.3007 60.1915 21.094C60.1915 21.8873 60.0328 22.592 59.7155 23.208C59.4075 23.8147 58.9828 24.286 58.4415 24.622C57.9095 24.958 57.3122 25.126 56.6495 25.126C56.0802 25.126 55.5762 25.0093 55.1375 24.776C54.7082 24.5427 54.3582 24.2487 54.0875 23.894V28.696H52.1275V17.244H54.0875V18.364ZM58.1895 21.094C58.1895 20.6273 58.0915 20.226 57.8955 19.89C57.7088 19.5447 57.4568 19.2833 57.1395 19.106C56.8315 18.9287 56.4955 18.84 56.1315 18.84C55.7768 18.84 55.4408 18.9333 55.1235 19.12C54.8155 19.2973 54.5635 19.5587 54.3675 19.904C54.1808 20.2493 54.0875 20.6553 54.0875 21.122C54.0875 21.5887 54.1808 21.9947 54.3675 22.34C54.5635 22.6853 54.8155 22.9513 55.1235 23.138C55.4408 23.3153 55.7768 23.404 56.1315 23.404C56.4955 23.404 56.8315 23.3107 57.1395 23.124C57.4568 22.9373 57.7088 22.6713 57.8955 22.326C58.0915 21.9807 58.1895 21.57 58.1895 21.094ZM63.7158 18.364C63.9678 18.0093 64.3131 17.7153 64.7518 17.482C65.1998 17.2393 65.7084 17.118 66.2778 17.118C66.9404 17.118 67.5378 17.2813 68.0698 17.608C68.6111 17.9347 69.0358 18.4013 69.3438 19.008C69.6611 19.6053 69.8198 20.3007 69.8198 21.094C69.8198 21.8873 69.6611 22.592 69.3438 23.208C69.0358 23.8147 68.6111 24.286 68.0698 24.622C67.5378 24.958 66.9404 25.126 66.2778 25.126C65.7084 25.126 65.2044 25.0093 64.7658 24.776C64.3364 24.5427 63.9864 24.2487 63.7158 23.894V28.696H61.7558V17.244H63.7158V18.364ZM67.8178 21.094C67.8178 20.6273 67.7198 20.226 67.5238 19.89C67.3371 19.5447 67.0851 19.2833 66.7678 19.106C66.4598 18.9287 66.1238 18.84 65.7598 18.84C65.4051 18.84 65.0691 18.9333 64.7518 19.12C64.4438 19.2973 64.1918 19.5587 63.9958 19.904C63.8091 20.2493 63.7158 20.6553 63.7158 21.122C63.7158 21.5887 63.8091 21.9947 63.9958 22.34C64.1918 22.6853 64.4438 22.9513 64.7518 23.138C65.0691 23.3153 65.4051 23.404 65.7598 23.404C66.1238 23.404 66.4598 23.3107 66.7678 23.124C67.0851 22.9373 67.3371 22.6713 67.5238 22.326C67.7198 21.9807 67.8178 21.57 67.8178 21.094ZM78.234 25.098C77.5527 25.098 76.9367 24.9813 76.386 24.748C75.8447 24.5147 75.4153 24.1787 75.098 23.74C74.7807 23.3013 74.6173 22.7833 74.608 22.186H76.708C76.736 22.5873 76.876 22.9047 77.128 23.138C77.3893 23.3713 77.744 23.488 78.192 23.488C78.6493 23.488 79.0087 23.3807 79.27 23.166C79.5313 22.942 79.662 22.6527 79.662 22.298C79.662 22.0087 79.5733 21.7707 79.396 21.584C79.2187 21.3973 78.9947 21.2527 78.724 21.15C78.4627 21.038 78.0987 20.9167 77.632 20.786C76.9973 20.5993 76.4793 20.4173 76.078 20.24C75.686 20.0533 75.3453 19.778 75.056 19.414C74.776 19.0407 74.636 18.546 74.636 17.93C74.636 17.3513 74.7807 16.8473 75.07 16.418C75.3593 15.9887 75.7653 15.662 76.288 15.438C76.8107 15.2047 77.408 15.088 78.08 15.088C79.088 15.088 79.9047 15.3353 80.53 15.83C81.1647 16.3153 81.5147 16.9967 81.58 17.874H79.424C79.4053 17.538 79.2607 17.2627 78.99 17.048C78.7287 16.824 78.3787 16.712 77.94 16.712C77.5573 16.712 77.2493 16.81 77.016 17.006C76.792 17.202 76.68 17.4867 76.68 17.86C76.68 18.1213 76.764 18.3407 76.932 18.518C77.1093 18.686 77.324 18.826 77.576 18.938C77.8373 19.0407 78.2013 19.162 78.668 19.302C79.3027 19.4887 79.8207 19.6753 80.222 19.862C80.6233 20.0487 80.9687 20.3287 81.258 20.702C81.5473 21.0753 81.692 21.5653 81.692 22.172C81.692 22.6947 81.5567 23.18 81.286 23.628C81.0153 24.076 80.6187 24.4353 80.096 24.706C79.5733 24.9673 78.9527 25.098 78.234 25.098ZM85.8132 18.854V22.606C85.8132 22.8673 85.8739 23.0587 85.9952 23.18C86.1259 23.292 86.3406 23.348 86.6392 23.348H87.5492V25H86.3172C84.6652 25 83.8392 24.1973 83.8392 22.592V18.854H82.9152V17.244H83.8392V15.326H85.8132V17.244H87.5492V18.854H85.8132ZM92.543 25.126C91.7963 25.126 91.1243 24.9627 90.527 24.636C89.9296 24.3 89.4583 23.8287 89.113 23.222C88.777 22.6153 88.609 21.9153 88.609 21.122C88.609 20.3287 88.7816 19.6287 89.127 19.022C89.4816 18.4153 89.9623 17.9487 90.569 17.622C91.1756 17.286 91.8523 17.118 92.599 17.118C93.3456 17.118 94.0223 17.286 94.629 17.622C95.2356 17.9487 95.7116 18.4153 96.057 19.022C96.4116 19.6287 96.589 20.3287 96.589 21.122C96.589 21.9153 96.407 22.6153 96.043 23.222C95.6883 23.8287 95.203 24.3 94.587 24.636C93.9803 24.9627 93.299 25.126 92.543 25.126ZM92.543 23.418C92.8976 23.418 93.229 23.334 93.537 23.166C93.8543 22.9887 94.1063 22.7273 94.293 22.382C94.4796 22.0367 94.573 21.6167 94.573 21.122C94.573 20.3847 94.377 19.82 93.985 19.428C93.6023 19.0267 93.131 18.826 92.571 18.826C92.011 18.826 91.5396 19.0267 91.157 19.428C90.7836 19.82 90.597 20.3847 90.597 21.122C90.597 21.8593 90.779 22.4287 91.143 22.83C91.5163 23.222 91.983 23.418 92.543 23.418ZM100.127 18.448C100.379 18.0373 100.705 17.7153 101.107 17.482C101.517 17.2487 101.984 17.132 102.507 17.132V19.19H101.989C101.373 19.19 100.906 19.3347 100.589 19.624C100.281 19.9133 100.127 20.4173 100.127 21.136V25H98.1667V17.244H100.127V18.448ZM111.177 20.954C111.177 21.234 111.158 21.486 111.121 21.71H105.451C105.498 22.27 105.694 22.7087 106.039 23.026C106.384 23.3433 106.809 23.502 107.313 23.502C108.041 23.502 108.559 23.1893 108.867 22.564H110.981C110.757 23.3107 110.328 23.9267 109.693 24.412C109.058 24.888 108.279 25.126 107.355 25.126C106.608 25.126 105.936 24.9627 105.339 24.636C104.751 24.3 104.289 23.8287 103.953 23.222C103.626 22.6153 103.463 21.9153 103.463 21.122C103.463 20.3193 103.626 19.6147 103.953 19.008C104.28 18.4013 104.737 17.9347 105.325 17.608C105.913 17.2813 106.59 17.118 107.355 17.118C108.092 17.118 108.75 17.2767 109.329 17.594C109.917 17.9113 110.37 18.364 110.687 18.952C111.014 19.5307 111.177 20.198 111.177 20.954ZM109.147 20.394C109.138 19.89 108.956 19.4887 108.601 19.19C108.246 18.882 107.812 18.728 107.299 18.728C106.814 18.728 106.403 18.8773 106.067 19.176C105.74 19.4653 105.54 19.8713 105.465 20.394H109.147Z" fill="#002441"/>
<g clip-path="url(#clip0_7189_21851)">
<path d="M25.0929 20.0292C25.0708 17.6467 27.0858 16.4873 27.1781 16.4331C26.037 14.8044 24.268 14.5817 23.6466 14.5644C22.1608 14.4117 20.7203 15.4346 19.9632 15.4346C19.1914 15.4346 18.0256 14.5795 16.7703 14.6048C15.1544 14.6293 13.6419 15.5452 12.8126 16.9674C11.1014 19.8675 12.3778 24.1296 14.017 26.4737C14.8371 27.6216 15.7957 28.9038 17.0498 28.8584C18.2771 28.8085 18.7355 28.0923 20.217 28.0923C21.6847 28.0923 22.1147 28.8584 23.3944 28.8295C24.7113 28.8085 25.541 27.6765 26.3324 26.5177C27.2802 25.2017 27.6608 23.9057 27.6759 23.8393C27.6453 23.8292 25.118 22.8856 25.0929 20.0292Z" fill="#002441"/>
<path d="M22.6754 13.0232C23.3352 12.215 23.7869 11.1158 23.6615 10C22.706 10.0415 21.5111 10.6465 20.8234 11.4374C20.2149 12.1337 19.6709 13.2755 19.8114 14.3487C20.8846 14.4267 21.9865 13.8187 22.6754 13.0232Z" fill="#002441"/>
</g>
<defs>
<clipPath id="clip0_7189_21851">
<rect width="24" height="24" fill="white" transform="translate(8 8)"/>
</clipPath>
</defs>
</svg>
