<svg width="136" height="40" viewBox="0 0 136 40" fill="none" xmlns="http://www.w3.org/2000/svg">
<rect width="136" height="40" rx="5.42647" fill="#FAFAFA"/>
<path d="M49.3991 18.168C49.1751 17.7573 48.8671 17.4447 48.4751 17.23C48.0831 17.0153 47.6258 16.908 47.1031 16.908C46.5244 16.908 46.0111 17.0387 45.5631 17.3C45.1151 17.5613 44.7651 17.9347 44.5131 18.42C44.2611 18.9053 44.1351 19.4653 44.1351 20.1C44.1351 20.7533 44.2611 21.3227 44.5131 21.808C44.7744 22.2933 45.1338 22.6667 45.5911 22.928C46.0484 23.1893 46.5804 23.32 47.1871 23.32C47.9338 23.32 48.5451 23.124 49.0211 22.732C49.4971 22.3307 49.8098 21.7753 49.9591 21.066H46.5991V19.568H51.8911V21.276C51.7604 21.9573 51.4804 22.5873 51.0511 23.166C50.6218 23.7447 50.0664 24.2113 49.3851 24.566C48.7131 24.9113 47.9571 25.084 47.1171 25.084C46.1744 25.084 45.3204 24.874 44.5551 24.454C43.7991 24.0247 43.2018 23.432 42.7631 22.676C42.3338 21.92 42.1191 21.0613 42.1191 20.1C42.1191 19.1387 42.3338 18.28 42.7631 17.524C43.2018 16.7587 43.7991 16.166 44.5551 15.746C45.3204 15.3167 46.1698 15.102 47.1031 15.102C48.2044 15.102 49.1611 15.3727 49.9731 15.914C50.7851 16.446 51.3451 17.1973 51.6531 18.168H49.3991ZM56.9252 25.126C56.1785 25.126 55.5065 24.9627 54.9092 24.636C54.3119 24.3 53.8405 23.8287 53.4952 23.222C53.1592 22.6153 52.9912 21.9153 52.9912 21.122C52.9912 20.3287 53.1639 19.6287 53.5092 19.022C53.8639 18.4153 54.3445 17.9487 54.9512 17.622C55.5579 17.286 56.2345 17.118 56.9812 17.118C57.7279 17.118 58.4045 17.286 59.0112 17.622C59.6179 17.9487 60.0939 18.4153 60.4392 19.022C60.7939 19.6287 60.9712 20.3287 60.9712 21.122C60.9712 21.9153 60.7892 22.6153 60.4252 23.222C60.0705 23.8287 59.5852 24.3 58.9692 24.636C58.3625 24.9627 57.6812 25.126 56.9252 25.126ZM56.9252 23.418C57.2799 23.418 57.6112 23.334 57.9192 23.166C58.2365 22.9887 58.4885 22.7273 58.6752 22.382C58.8619 22.0367 58.9552 21.6167 58.9552 21.122C58.9552 20.3847 58.7592 19.82 58.3672 19.428C57.9845 19.0267 57.5132 18.826 56.9532 18.826C56.3932 18.826 55.9219 19.0267 55.5392 19.428C55.1659 19.82 54.9792 20.3847 54.9792 21.122C54.9792 21.8593 55.1612 22.4287 55.5252 22.83C55.8985 23.222 56.3652 23.418 56.9252 23.418ZM65.9929 25.126C65.2463 25.126 64.5743 24.9627 63.9769 24.636C63.3796 24.3 62.9083 23.8287 62.5629 23.222C62.2269 22.6153 62.0589 21.9153 62.0589 21.122C62.0589 20.3287 62.2316 19.6287 62.5769 19.022C62.9316 18.4153 63.4123 17.9487 64.0189 17.622C64.6256 17.286 65.3023 17.118 66.0489 17.118C66.7956 17.118 67.4723 17.286 68.0789 17.622C68.6856 17.9487 69.1616 18.4153 69.5069 19.022C69.8616 19.6287 70.0389 20.3287 70.0389 21.122C70.0389 21.9153 69.8569 22.6153 69.4929 23.222C69.1383 23.8287 68.6529 24.3 68.0369 24.636C67.4303 24.9627 66.7489 25.126 65.9929 25.126ZM65.9929 23.418C66.3476 23.418 66.6789 23.334 66.9869 23.166C67.3043 22.9887 67.5563 22.7273 67.7429 22.382C67.9296 22.0367 68.0229 21.6167 68.0229 21.122C68.0229 20.3847 67.8269 19.82 67.4349 19.428C67.0523 19.0267 66.5809 18.826 66.0209 18.826C65.4609 18.826 64.9896 19.0267 64.6069 19.428C64.2336 19.82 64.0469 20.3847 64.0469 21.122C64.0469 21.8593 64.2289 22.4287 64.5929 22.83C64.9663 23.222 65.4329 23.418 65.9929 23.418ZM74.6547 17.118C75.2333 17.118 75.742 17.2347 76.1807 17.468C76.6193 17.692 76.9647 17.986 77.2167 18.35V17.244H79.1907V25.056C79.1907 25.7747 79.046 26.414 78.7567 26.974C78.4673 27.5433 78.0333 27.9913 77.4547 28.318C76.876 28.654 76.176 28.822 75.3547 28.822C74.2533 28.822 73.348 28.5653 72.6387 28.052C71.9387 27.5387 71.542 26.8387 71.4487 25.952H73.3947C73.4973 26.3067 73.7167 26.5867 74.0527 26.792C74.398 27.0067 74.8133 27.114 75.2987 27.114C75.868 27.114 76.33 26.9413 76.6847 26.596C77.0393 26.26 77.2167 25.7467 77.2167 25.056V23.852C76.9647 24.216 76.6147 24.5193 76.1667 24.762C75.728 25.0047 75.224 25.126 74.6547 25.126C74.0013 25.126 73.404 24.958 72.8627 24.622C72.3213 24.286 71.892 23.8147 71.5747 23.208C71.2667 22.592 71.1127 21.8873 71.1127 21.094C71.1127 20.31 71.2667 19.6147 71.5747 19.008C71.892 18.4013 72.3167 17.9347 72.8487 17.608C73.39 17.2813 73.992 17.118 74.6547 17.118ZM77.2167 21.122C77.2167 20.646 77.1233 20.24 76.9367 19.904C76.75 19.5587 76.498 19.2973 76.1807 19.12C75.8633 18.9333 75.5227 18.84 75.1587 18.84C74.7947 18.84 74.4587 18.9287 74.1507 19.106C73.8427 19.2833 73.5907 19.5447 73.3947 19.89C73.208 20.226 73.1147 20.6273 73.1147 21.094C73.1147 21.5607 73.208 21.9713 73.3947 22.326C73.5907 22.6713 73.8427 22.9373 74.1507 23.124C74.468 23.3107 74.804 23.404 75.1587 23.404C75.5227 23.404 75.8633 23.3153 76.1807 23.138C76.498 22.9513 76.75 22.69 76.9367 22.354C77.1233 22.0087 77.2167 21.598 77.2167 21.122ZM83.2049 14.64V25H81.2449V14.64H83.2049ZM92.4914 20.954C92.4914 21.234 92.4728 21.486 92.4354 21.71H86.7654C86.8121 22.27 87.0081 22.7087 87.3534 23.026C87.6988 23.3433 88.1234 23.502 88.6274 23.502C89.3554 23.502 89.8734 23.1893 90.1814 22.564H92.2954C92.0714 23.3107 91.6421 23.9267 91.0074 24.412C90.3728 24.888 89.5934 25.126 88.6694 25.126C87.9228 25.126 87.2508 24.9627 86.6534 24.636C86.0654 24.3 85.6034 23.8287 85.2674 23.222C84.9408 22.6153 84.7774 21.9153 84.7774 21.122C84.7774 20.3193 84.9408 19.6147 85.2674 19.008C85.5941 18.4013 86.0514 17.9347 86.6394 17.608C87.2274 17.2813 87.9041 17.118 88.6694 17.118C89.4068 17.118 90.0648 17.2767 90.6434 17.594C91.2314 17.9113 91.6841 18.364 92.0014 18.952C92.3281 19.5307 92.4914 20.198 92.4914 20.954ZM90.4614 20.394C90.4521 19.89 90.2701 19.4887 89.9154 19.19C89.5608 18.882 89.1268 18.728 88.6134 18.728C88.1281 18.728 87.7174 18.8773 87.3814 19.176C87.0548 19.4653 86.8541 19.8713 86.7794 20.394H90.4614ZM104.664 18.252C104.664 18.7747 104.538 19.2647 104.286 19.722C104.043 20.1793 103.656 20.548 103.124 20.828C102.601 21.108 101.939 21.248 101.136 21.248H99.498V25H97.538V15.228H101.136C101.892 15.228 102.536 15.3587 103.068 15.62C103.6 15.8813 103.997 16.2407 104.258 16.698C104.529 17.1553 104.664 17.6733 104.664 18.252ZM101.052 19.666C101.593 19.666 101.995 19.5447 102.256 19.302C102.517 19.05 102.648 18.7 102.648 18.252C102.648 17.3 102.116 16.824 101.052 16.824H99.498V19.666H101.052ZM108.156 14.64V25H106.196V14.64H108.156ZM109.728 21.094C109.728 20.31 109.882 19.6147 110.19 19.008C110.507 18.4013 110.932 17.9347 111.464 17.608C112.005 17.2813 112.607 17.118 113.27 17.118C113.849 17.118 114.353 17.2347 114.782 17.468C115.221 17.7013 115.571 17.9953 115.832 18.35V17.244H117.806V25H115.832V23.866C115.58 24.23 115.23 24.5333 114.782 24.776C114.343 25.0093 113.835 25.126 113.256 25.126C112.603 25.126 112.005 24.958 111.464 24.622C110.932 24.286 110.507 23.8147 110.19 23.208C109.882 22.592 109.728 21.8873 109.728 21.094ZM115.832 21.122C115.832 20.646 115.739 20.24 115.552 19.904C115.365 19.5587 115.113 19.2973 114.796 19.12C114.479 18.9333 114.138 18.84 113.774 18.84C113.41 18.84 113.074 18.9287 112.766 19.106C112.458 19.2833 112.206 19.5447 112.01 19.89C111.823 20.226 111.73 20.6273 111.73 21.094C111.73 21.5607 111.823 21.9713 112.01 22.326C112.206 22.6713 112.458 22.9373 112.766 23.124C113.083 23.3107 113.419 23.404 113.774 23.404C114.138 23.404 114.479 23.3153 114.796 23.138C115.113 22.9513 115.365 22.69 115.552 22.354C115.739 22.0087 115.832 21.598 115.832 21.122ZM127.28 17.244L122.478 28.668H120.392L122.072 24.804L118.964 17.244H121.162L123.164 22.662L125.194 17.244H127.28Z" fill="#002441"/>
<path d="M19.2904 19.329L12.0664 26.9939C12.2902 27.8283 13.05 28.4387 13.9521 28.4387C14.3116 28.4387 14.6508 28.3438 14.9424 28.1674L14.9628 28.1538L23.0889 23.4667L19.2836 19.3223L19.2904 19.329Z" fill="#EA4335"/>
<path d="M26.5971 18.028H26.5903L23.0834 15.9863L19.1289 19.5068L23.097 23.4749L26.5903 21.4603C27.2008 21.1279 27.6146 20.4835 27.6146 19.7442C27.6146 19.0048 27.2076 18.3604 26.5971 18.0348V18.028Z" fill="#FBBC04"/>
<path d="M12.0678 12.4512C12.0271 12.614 12 12.7768 12 12.9531V26.4922C12 26.6685 12.0203 26.8313 12.0678 26.9941L19.536 19.5259L12.0678 12.4512Z" fill="#4285F4"/>
<path d="M19.3447 19.7231L23.0821 15.9856L14.9628 11.2781C14.6711 11.1017 14.3252 11 13.9521 11C13.05 11 12.2902 11.6173 12.0664 12.4448L19.3447 19.7163V19.7231Z" fill="#34A853"/>
</svg>
