<svg width="136" height="40" viewBox="0 0 136 40" fill="none" xmlns="http://www.w3.org/2000/svg">
<rect width="136" height="40" rx="5.42647" fill="#FAFAFA"/>
<path d="M48.616 15.228V16.81H46.012V25H44.052V16.81H41.448V15.228H48.616ZM52.1461 18.448C52.3981 18.0373 52.7247 17.7153 53.1261 17.482C53.5367 17.2487 54.0034 17.132 54.5261 17.132V19.19H54.0081C53.3921 19.19 52.9254 19.3347 52.6081 19.624C52.3001 19.9133 52.1461 20.4173 52.1461 21.136V25H50.1861V17.244H52.1461V18.448ZM63.3082 17.244V25H61.3342V24.02C61.0822 24.356 60.7509 24.622 60.3402 24.818C59.9389 25.0047 59.5002 25.098 59.0242 25.098C58.4176 25.098 57.8809 24.972 57.4142 24.72C56.9476 24.4587 56.5789 24.0807 56.3082 23.586C56.0469 23.082 55.9162 22.4847 55.9162 21.794V17.244H57.8762V21.514C57.8762 22.13 58.0302 22.606 58.3382 22.942C58.6462 23.2687 59.0662 23.432 59.5982 23.432C60.1396 23.432 60.5642 23.2687 60.8722 22.942C61.1802 22.606 61.3342 22.13 61.3342 21.514V17.244H63.3082ZM68.3501 25.126C67.7154 25.126 67.1461 25.014 66.6421 24.79C66.1381 24.5567 65.7368 24.244 65.4381 23.852C65.1488 23.46 64.9901 23.026 64.9621 22.55H66.9361C66.9734 22.8487 67.1181 23.096 67.3701 23.292C67.6314 23.488 67.9534 23.586 68.3361 23.586C68.7094 23.586 68.9988 23.5113 69.2041 23.362C69.4188 23.2127 69.5261 23.0213 69.5261 22.788C69.5261 22.536 69.3954 22.3493 69.1341 22.228C68.8821 22.0973 68.4761 21.9573 67.9161 21.808C67.3374 21.668 66.8614 21.5233 66.4881 21.374C66.1241 21.2247 65.8068 20.996 65.5361 20.688C65.2748 20.38 65.1441 19.9647 65.1441 19.442C65.1441 19.0127 65.2654 18.6207 65.5081 18.266C65.7601 17.9113 66.1148 17.6313 66.5721 17.426C67.0388 17.2207 67.5848 17.118 68.2101 17.118C69.1341 17.118 69.8714 17.3513 70.4221 17.818C70.9728 18.2753 71.2761 18.896 71.3321 19.68H69.4561C69.4281 19.372 69.2974 19.1293 69.0641 18.952C68.8401 18.7653 68.5368 18.672 68.1541 18.672C67.7994 18.672 67.5241 18.7373 67.3281 18.868C67.1414 18.9987 67.0481 19.1807 67.0481 19.414C67.0481 19.6753 67.1788 19.876 67.4401 20.016C67.7014 20.1467 68.1074 20.282 68.6581 20.422C69.2181 20.562 69.6801 20.7067 70.0441 20.856C70.4081 21.0053 70.7208 21.2387 70.9821 21.556C71.2528 21.864 71.3928 22.2747 71.4021 22.788C71.4021 23.236 71.2761 23.6373 71.0241 23.992C70.7814 24.3467 70.4268 24.6267 69.9601 24.832C69.5028 25.028 68.9661 25.126 68.3501 25.126ZM75.433 18.854V22.606C75.433 22.8673 75.4937 23.0587 75.615 23.18C75.7457 23.292 75.9603 23.348 76.259 23.348H77.169V25H75.937C74.285 25 73.459 24.1973 73.459 22.592V18.854H72.535V17.244H73.459V15.326H75.433V17.244H77.169V18.854H75.433ZM80.6787 18.364C80.9307 18.0093 81.2761 17.7153 81.7147 17.482C82.1627 17.2393 82.6714 17.118 83.2407 17.118C83.9034 17.118 84.5007 17.2813 85.0327 17.608C85.5741 17.9347 85.9987 18.4013 86.3067 19.008C86.6241 19.6053 86.7827 20.3007 86.7827 21.094C86.7827 21.8873 86.6241 22.592 86.3067 23.208C85.9987 23.8147 85.5741 24.286 85.0327 24.622C84.5007 24.958 83.9034 25.126 83.2407 25.126C82.6714 25.126 82.1674 25.0093 81.7287 24.776C81.2994 24.5427 80.9494 24.2487 80.6787 23.894V28.696H78.7187V17.244H80.6787V18.364ZM84.7807 21.094C84.7807 20.6273 84.6827 20.226 84.4867 19.89C84.3001 19.5447 84.0481 19.2833 83.7307 19.106C83.4227 18.9287 83.0867 18.84 82.7227 18.84C82.3681 18.84 82.0321 18.9333 81.7147 19.12C81.4067 19.2973 81.1547 19.5587 80.9587 19.904C80.7721 20.2493 80.6787 20.6553 80.6787 21.122C80.6787 21.5887 80.7721 21.9947 80.9587 22.34C81.1547 22.6853 81.4067 22.9513 81.7147 23.138C82.0321 23.3153 82.3681 23.404 82.7227 23.404C83.0867 23.404 83.4227 23.3107 83.7307 23.124C84.0481 22.9373 84.3001 22.6713 84.4867 22.326C84.6827 21.9807 84.7807 21.57 84.7807 21.094ZM89.341 16.32C88.9957 16.32 88.7063 16.2127 88.473 15.998C88.249 15.774 88.137 15.4987 88.137 15.172C88.137 14.8453 88.249 14.5747 88.473 14.36C88.7063 14.136 88.9957 14.024 89.341 14.024C89.6863 14.024 89.971 14.136 90.195 14.36C90.4283 14.5747 90.545 14.8453 90.545 15.172C90.545 15.4987 90.4283 15.774 90.195 15.998C89.971 16.2127 89.6863 16.32 89.341 16.32ZM90.307 17.244V25H88.347V17.244H90.307ZM94.3435 14.64V25H92.3835V14.64H94.3435ZM99.864 25.126C99.1173 25.126 98.4453 24.9627 97.848 24.636C97.2507 24.3 96.7793 23.8287 96.434 23.222C96.098 22.6153 95.93 21.9153 95.93 21.122C95.93 20.3287 96.1027 19.6287 96.448 19.022C96.8027 18.4153 97.2833 17.9487 97.89 17.622C98.4967 17.286 99.1733 17.118 99.92 17.118C100.667 17.118 101.343 17.286 101.95 17.622C102.557 17.9487 103.033 18.4153 103.378 19.022C103.733 19.6287 103.91 20.3287 103.91 21.122C103.91 21.9153 103.728 22.6153 103.364 23.222C103.009 23.8287 102.524 24.3 101.908 24.636C101.301 24.9627 100.62 25.126 99.864 25.126ZM99.864 23.418C100.219 23.418 100.55 23.334 100.858 23.166C101.175 22.9887 101.427 22.7273 101.614 22.382C101.801 22.0367 101.894 21.6167 101.894 21.122C101.894 20.3847 101.698 19.82 101.306 19.428C100.923 19.0267 100.452 18.826 99.892 18.826C99.332 18.826 98.8606 19.0267 98.478 19.428C98.1047 19.82 97.918 20.3847 97.918 21.122C97.918 21.8593 98.1 22.4287 98.464 22.83C98.8373 23.222 99.304 23.418 99.864 23.418ZM107.77 18.854V22.606C107.77 22.8673 107.83 23.0587 107.952 23.18C108.082 23.292 108.297 23.348 108.596 23.348H109.506V25H108.274C106.622 25 105.796 24.1973 105.796 22.592V18.854H104.872V17.244H105.796V15.326H107.77V17.244H109.506V18.854H107.77Z" fill="#002441"/>
<path d="M20 25.2516L24.3452 24.088L26.1607 30L20 25.2516ZM30 17.6101H22.3512L20 10L17.6488 17.6101H10L16.1905 22.327L13.8393 29.9371L20.0298 25.2201L23.8393 22.327L30 17.6101Z" fill="#219653"/>
</svg>
